<?xml version="1.0" encoding="UTF-8" standalone="no"?>
<!DOCTYPE svg PUBLIC "-//W3C//DTD SVG 1.1//EN" "http://www.w3.org/Graphics/SVG/1.1/DTD/svg11.dtd">
<svg width="100%" height="100%" viewBox="0 0 300 300" version="1.1" xmlns="http://www.w3.org/2000/svg" xmlns:xlink="http://www.w3.org/1999/xlink" xml:space="preserve" xmlns:serif="http://www.serif.com/" style="fill-rule:evenodd;clip-rule:evenodd;stroke-linejoin:round;stroke-miterlimit:2;">
    <g id="bg" transform="matrix(1,0,0,1,0,44)">
        <g id="use4712" transform="matrix(1.1719,0,0,1.1719,0,-44)">
            <rect x="0" y="0" width="256" height="256" style="fill:rgb(204,204,204);"/>
        </g>
        <g transform="matrix(1,0,0,1,0,-44)">
            <rect x="110" y="80" width="10" height="10"/>
        </g>
        <g transform="matrix(1,0,0,1,0,-44)">
            <rect x="100" y="70" width="10" height="10"/>
        </g>
        <g transform="matrix(1,0,0,1,0,-44)">
            <rect x="110" y="100" width="10" height="10"/>
        </g>
        <g transform="matrix(1,0,0,1,0,-44)">
            <rect x="100" y="110" width="10" height="10"/>
        </g>
    </g>
    <g id="draw" transform="matrix(1,0,0,1,0,-752.36)">
        <g transform="matrix(1,0,0,1,44.9984,10)">
            <g transform="matrix(1.16666,0,0,1,-20.0059,742.36)">
                <rect x="120.003" y="70" width="60.003" height="100" style="fill:white;"/>
            </g>
            <g transform="matrix(1.75,0,0,2,-90,672.36)">
                <rect x="120" y="60" width="40" height="10"/>
            </g>
            <g>
                <g transform="matrix(1.75008,0,0,4,-90.0096,672.36)">
                    <rect x="120" y="60" width="40" height="10"/>
                </g>
                <g transform="matrix(1,0,0,1,4.9984,782.36)">
                    <rect x="140" y="140" width="20" height="20" style="fill:white;"/>
                </g>
            </g>
            <g transform="matrix(1,0,0,9.55,0,134.051)">
                <rect x="110" y="70" width="10" height="10"/>
            </g>
            <g transform="matrix(1,0,0,14,30.0032,-177.64)">
                <rect x="160" y="70" width="10" height="10"/>
            </g>
        </g>
        <g transform="matrix(6.12323e-17,-1,1,6.12323e-17,-752.36,1117.36)">
            <g transform="matrix(1.16666,0,0,1,-20.0059,742.36)">
                <rect x="120.003" y="70" width="60.003" height="100" style="fill:white;"/>
            </g>
            <g transform="matrix(1.75,0,0,2,-90,672.36)">
                <rect x="120" y="60" width="40" height="10"/>
            </g>
            <g>
                <g transform="matrix(1.75008,0,0,4,-90.0096,672.36)">
                    <rect x="120" y="60" width="40" height="10"/>
                </g>
                <g transform="matrix(1,0,0,1,4.9984,782.36)">
                    <rect x="140" y="140" width="20" height="20" style="fill:white;"/>
                </g>
            </g>
            <g transform="matrix(1,0,0,1,-29.9968,752.36)">
                <path d="M220,160L149.997,160L149.997,200L220,200L220,160ZM194.995,170L174.995,170L174.995,190L194.995,190L194.995,170Z"/>
            </g>
            <g transform="matrix(1,0,0,14,0,-177.64)">
                <rect x="110" y="70" width="10" height="10"/>
            </g>
            <g transform="matrix(1,0,0,14,30.0032,-177.64)">
                <rect x="160" y="70" width="10" height="10"/>
            </g>
        </g>
        <g transform="matrix(1,0,0,1,0,752.36)">
            <rect x="70" y="110" width="10" height="30"/>
        </g>
        <g transform="matrix(1,0,0,1,0,752.36)">
            <rect x="80" y="100" width="10" height="10"/>
        </g>
        <g transform="matrix(1.33333,0,0,1,-30,752.36)">
            <rect x="90" y="90" width="30" height="10"/>
        </g>
    </g>
</svg>
