<?xml version="1.0" encoding="UTF-8" standalone="no"?>
<!DOCTYPE svg PUBLIC "-//W3C//DTD SVG 1.1//EN" "http://www.w3.org/Graphics/SVG/1.1/DTD/svg11.dtd">
<svg width="100%" height="100%" viewBox="0 0 300 300" version="1.1" xmlns="http://www.w3.org/2000/svg" xmlns:xlink="http://www.w3.org/1999/xlink" xml:space="preserve" xmlns:serif="http://www.serif.com/" style="fill-rule:evenodd;clip-rule:evenodd;stroke-linejoin:round;stroke-miterlimit:2;">
    <g id="bg" transform="matrix(1,0,0,1,0,44)">
        <rect id="use3389" x="0" y="0" width="256" height="256" style="fill:rgb(204,204,204);"/>
        <g id="use4712" transform="matrix(1.1719,0,0,1.1719,0,-44)">
            <rect x="0" y="0" width="256" height="256" style="fill:rgb(204,204,204);"/>
        </g>
        <rect id="use7523" x="0" y="0" width="256" height="256" style="fill:rgb(204,204,204);"/>
    </g>
    <g transform="matrix(1,0,0,1,1520,-742.36)">
        <g id="draw">
            <g id="g5915">
                <g id="g6859-6-3">
                    <path id="path5853-4-0-5" d="M-1470,942.36L-1450,922.36L-1420,952.36L-1410,842.36L-1380,842.36L-1390,882.36L-1370,882.36L-1350,902.36L-1330,902.36L-1320,912.36L-1310,912.36L-1290,932.36L-1290,982.36L-1310,1002.36L-1300,1002.36L-1330,1032.36L-1400,1032.36L-1430,1002.36L-1430,982.36L-1470,942.36Z" style="fill:url(#_Linear1);fill-rule:nonzero;"/>
                    <rect id="rect5811-7-6-1" x="-1410" y="832.36" width="20" height="10"/>
                    <rect id="rect5813-8-1-9" x="-1420" y="842.36" width="10" height="110"/>
                    <rect id="rect5815-8-5-5" x="-1390" y="842.36" width="10" height="90"/>
                    <rect id="rect5817-6-8-7" x="-1380" y="882.36" width="20" height="10"/>
                    <rect id="rect5819-0-8-3" x="-1360" y="892.36" width="10" height="40"/>
                    <rect id="rect5821-8-6-5" x="-1350" y="892.36" width="20" height="10"/>
                    <rect id="rect5823-1-3-1" x="-1330" y="902.36" width="20" height="10"/>
                    <rect id="rect5825-0-0-8" x="-1330" y="912.36" width="10" height="30"/>
                    <rect id="rect5827-5-1-5" x="-1310" y="912.36" width="10" height="10"/>
                    <rect id="rect5829-2-9-1" x="-1300" y="922.36" width="10" height="70"/>
                    <rect id="rect5831-72-0-2" x="-1440" y="932.36" width="10" height="10"/>
                    <rect id="rect5833-45-19-4" x="-1470" y="922.36" width="30" height="10"/>
                    <rect id="rect5835-7-6-5" x="-1470" y="932.36" width="10" height="20"/>
                    <rect id="rect5837-3-9-4" x="-1460" y="952.36" width="10" height="10"/>
                    <rect id="rect5839-5-8-1" x="-1450" y="962.36" width="10" height="10"/>
                    <rect id="rect5841-0-8-0" x="-1440" y="972.36" width="9.999" height="20"/>
                    <rect id="rect5843-6-9-0" x="-1430" y="992.36" width="10" height="20"/>
                    <rect id="rect5847-2-2-6" x="-1410" y="1022.4" width="90" height="10"/>
                    <rect id="rect5851-6-7-4" x="-1310" y="992.36" width="10" height="20"/>
                    <g id="rect6728-5-8" transform="matrix(1,0,0,1,0,796.36)">
                        <rect x="-1430" y="146" width="10" height="10"/>
                    </g>
                    <g id="rect6730-5-5" transform="matrix(1,0,0,1,0,796.36)">
                        <rect x="-1420" y="216" width="10" height="10"/>
                    </g>
                    <g id="rect7152-17-4" transform="matrix(1,0,0,1,0,796.36)">
                        <rect x="-1320" y="216" width="10" height="10"/>
                    </g>
                </g>
            </g>
        </g>
    </g>
    <g transform="matrix(1,0,0,1,-1820,-2192.4)">
        <rect id="rect12006" x="1870" y="2282.4" width="30" height="10"/>
        <rect id="rect12008" x="1890" y="2292.4" width="10" height="20"/>
        <rect id="rect12010" x="1880" y="2292.4" width="10" height="10"/>
        <rect id="rect12012" x="1870" y="2302.4" width="10" height="10"/>
        <rect id="rect12016" x="1850" y="2322.4" width="10" height="10"/>
        <rect id="rect12018" x="1830" y="2322.4" width="10" height="20"/>
        <rect id="rect12020" x="1840" y="2332.4" width="10" height="10"/>
        <rect id="rect12022" x="1830" y="2342.4" width="30" height="10"/>
    </g>
    <g transform="matrix(6.12323e-17,-1,1,6.12323e-17,-2177.4,1680)">
        <g id="draw1" serif:id="draw">
            <g id="g5949">
                <g id="rect8084-6-78-44-4-94" transform="matrix(0,1,1,0,0,0)">
                    <rect x="2312.4" y="1630" width="10" height="10"/>
                </g>
                <g id="rect8086-2-9-09-1-7" transform="matrix(0,1,1,0,0,0)">
                    <rect x="2302.4" y="1640" width="10" height="10"/>
                </g>
                <g id="rect8090-26-7-10-6-6" transform="matrix(0,1,1,0,0,0)">
                    <rect x="2282.4" y="1640" width="10" height="10"/>
                </g>
                <g id="rect8092-1-99-0-1-6" transform="matrix(0,1,1,0,0,0)">
                    <rect x="2272.4" y="1630" width="10" height="10"/>
                </g>
                <g id="rect8094-2-7-19-8-37" transform="matrix(0,1,1,0,0,0)">
                    <rect x="2292.4" y="1610" width="10" height="50"/>
                </g>
            </g>
        </g>
    </g>
    <g transform="matrix(1,0,0,1,-220,-2592.4)">
        <g id="draw2" serif:id="draw">
            <g id="g6225">
                <rect id="rect8227-4" x="400" y="2712.4" width="30" height="10"/>
                <rect id="rect8231-8" x="430" y="2702.4" width="10" height="10"/>
                <rect id="rect8233-7" x="440" y="2672.4" width="10" height="30"/>
                <rect id="rect8237-5" x="430" y="2662.4" width="10" height="10"/>
                <rect id="rect8239-3" x="390" y="2652.4" width="40" height="10"/>
                <rect id="rect8243-0" x="400" y="2642.4" width="10" height="30"/>
                <rect id="rect8245-3" x="380" y="2682.4" width="10" height="20"/>
                <rect id="rect8247-1" x="390" y="2702.4" width="10" height="10"/>
                <rect id="rect13035" x="410" y="2632.4" width="10" height="10"/>
                <rect id="rect13037" x="410" y="2672.4" width="10" height="10"/>
            </g>
        </g>
    </g>
    <defs>
        <linearGradient id="_Linear1" x1="0" y1="0" x2="1" y2="0" gradientUnits="userSpaceOnUse" gradientTransform="matrix(40,-60,60,40,-1400,1022.36)"><stop offset="0" style="stop-color:rgb(226,226,226);stop-opacity:1"/><stop offset="1" style="stop-color:white;stop-opacity:1"/></linearGradient>
    </defs>
</svg>
