<?xml version="1.0" encoding="UTF-8" standalone="no"?>
<!DOCTYPE svg PUBLIC "-//W3C//DTD SVG 1.1//EN" "http://www.w3.org/Graphics/SVG/1.1/DTD/svg11.dtd">
<svg width="100%" height="100%" viewBox="0 0 300 300" version="1.1" xmlns="http://www.w3.org/2000/svg" xmlns:xlink="http://www.w3.org/1999/xlink" xml:space="preserve" xmlns:serif="http://www.serif.com/" style="fill-rule:evenodd;clip-rule:evenodd;stroke-linejoin:round;stroke-miterlimit:2;">
    <g transform="matrix(1,0,0,1,-1799.21,-2)">
        <g id="Artboard5" transform="matrix(0.886223,0,0,0.79754,1220.94,-393.932)">
            <rect x="652.507" y="496.441" width="338.515" height="376.157" style="fill:none;"/>
            <g transform="matrix(1.32232,0,0,1.46936,652.507,496.441)">
                <rect id="use4712" x="0" y="0" width="256" height="256" style="fill:rgb(204,204,204);"/>
            </g>
            <g id="_-Group-" serif:id="(Group)" transform="matrix(1.12838,0,0,1.25386,652.507,-446.909)">
                <g>
                    <g>
                        <g transform="matrix(2,0,0,1,-10,922.36)">
                            <rect x="90" y="100" width="10" height="10" style="fill:white;"/>
                        </g>
                        <g transform="matrix(1,0,0,1,70,922.36)">
                            <rect x="90" y="100" width="10" height="10" style="fill:white;"/>
                        </g>
                        <g transform="matrix(2,0,0,1,-40,922.36)">
                            <rect x="90" y="100" width="10" height="10" style="fill:white;"/>
                        </g>
                        <g transform="matrix(1,0,0,2,30,812.36)">
                            <rect x="90" y="100" width="10" height="10" style="fill:white;"/>
                        </g>
                        <g transform="matrix(1,0,0,2,50,812.36)">
                            <rect x="90" y="100" width="10" height="10" style="fill:white;"/>
                        </g>
                        <g transform="matrix(1,0,0,2,90,812.36)">
                            <rect x="90" y="100" width="10" height="10" style="fill:white;"/>
                        </g>
                    </g>
                    <g>
                        <g transform="matrix(1,0,0,3,20,672.36)">
                            <rect x="90" y="100" width="10" height="10" style="fill:white;"/>
                        </g>
                        <g transform="matrix(1,0,0,3,30,682.36)">
                            <rect x="90" y="100" width="10" height="10" style="fill:white;"/>
                        </g>
                        <g transform="matrix(1,0,0,3,40,642.36)">
                            <rect x="90" y="100" width="10" height="10" style="fill:white;"/>
                        </g>
                        <g transform="matrix(1,0,0,3,60,642.36)">
                            <rect x="90" y="100" width="10" height="10" style="fill:white;"/>
                        </g>
                        <g transform="matrix(1,0,0,5,80,442.36)">
                            <rect x="90" y="100" width="10" height="10" style="fill:white;"/>
                        </g>
                        <g transform="matrix(1,0,0,3,90,682.36)">
                            <rect x="90" y="100" width="10" height="10" style="fill:white;"/>
                        </g>
                        <g transform="matrix(1,0,0,8,50,132.36)">
                            <rect x="90" y="100" width="10" height="10" style="fill:white;"/>
                        </g>
                        <g transform="matrix(1,0,0,5,70,432.36)">
                            <rect x="90" y="100" width="10" height="10" style="fill:white;"/>
                        </g>
                        <g transform="matrix(1,0,0,7,100,242.36)">
                            <rect x="90" y="100" width="10" height="10" style="fill:white;"/>
                        </g>
                        <g transform="matrix(1,0,0,7,90,242.36)">
                            <rect x="90" y="100" width="10" height="10" style="fill:white;"/>
                        </g>
                    </g>
                </g>
                <g transform="matrix(1,0,0,1,0,-10)">
                    <g transform="matrix(1,0,0,1,140,822.36)">
                        <rect x="90" y="100" width="10" height="10" style="fill:white;"/>
                    </g>
                    <g transform="matrix(1,0,0,1,140,792.36)">
                        <rect x="90" y="100" width="10" height="10" style="fill:white;"/>
                    </g>
                    <g transform="matrix(1,0,0,1,120,852.36)">
                        <rect x="90" y="100" width="10" height="10" style="fill:white;"/>
                    </g>
                </g>
                <g>
                    <g transform="matrix(1,0,0,1,100,762.36)">
                        <rect x="90" y="100" width="10" height="10" style="fill:white;"/>
                    </g>
                    <g transform="matrix(1,0,0,1,100,792.36)">
                        <rect x="90" y="100" width="10" height="10" style="fill:white;"/>
                    </g>
                    <g transform="matrix(1,0,0,1,90,832.36)">
                        <rect x="90" y="100" width="10" height="10" style="fill:white;"/>
                    </g>
                    <g transform="matrix(1,0,0,1,90,852.36)">
                        <rect x="90" y="100" width="10" height="10" style="fill:white;"/>
                    </g>
                </g>
                <g>
                    <g transform="matrix(1,0,0,1,60,822.36)">
                        <rect x="90" y="100" width="10" height="10" style="fill:white;"/>
                    </g>
                    <g transform="matrix(1,0,0,1,60,782.36)">
                        <rect x="90" y="100" width="10" height="10" style="fill:white;"/>
                    </g>
                    <g transform="matrix(1,0,0,1,60,742.36)">
                        <rect x="90" y="100" width="10" height="10" style="fill:white;"/>
                    </g>
                </g>
                <g>
                    <g transform="matrix(1,0,0,1,0,762.36)">
                        <rect x="90" y="100" width="10" height="10" style="fill:white;"/>
                    </g>
                    <g transform="matrix(1,0,0,1,10,792.36)">
                        <rect x="90" y="100" width="10" height="10" style="fill:white;"/>
                    </g>
                    <g transform="matrix(1,0,0,1,20,832.36)">
                        <rect x="90" y="100" width="10" height="10" style="fill:white;"/>
                    </g>
                </g>
                <g>
                    <g transform="matrix(1,0,0,1,-19.9992,852.36)">
                        <rect x="90" y="100" width="10" height="10" style="fill:white;"/>
                    </g>
                    <g transform="matrix(1,0,0,1,0,882.36)">
                        <rect x="90" y="100" width="10" height="10" style="fill:white;"/>
                    </g>
                </g>
            </g>
            <g transform="matrix(0.650902,0,0,0.876153,676.618,116.343)">
                <g transform="matrix(1.73357,0,0,1.43109,-1596.57,433.826)">
                    <rect x="989.603" y="90" width="10" height="20"/>
                </g>
                <g transform="matrix(1.73357,0,0,1.43109,-1596.57,433.826)">
                    <rect x="989.603" y="120" width="10" height="30"/>
                </g>
                <g transform="matrix(1.73357,0,0,1.43109,-1596.57,433.826)">
                    <rect x="999.603" y="150" width="10" height="40"/>
                </g>
                <g transform="matrix(1.73357,0,0,1.43109,-1596.57,433.826)">
                    <rect x="969.604" y="180" width="9.999" height="20"/>
                </g>
                <g transform="matrix(1.73357,0,0,1.43109,-1596.57,433.826)">
                    <rect x="979.604" y="200" width="9.999" height="40"/>
                </g>
                <g transform="matrix(1.73357,0,0,1.43109,-1596.57,433.826)">
                    <rect x="999.603" y="210" width="10" height="40"/>
                </g>
                <g transform="matrix(1.73357,0,0,1.43109,-1596.57,433.826)">
                    <rect x="979.603" y="220" width="30" height="10"/>
                </g>
                <g transform="matrix(1.73357,0,0,1.43109,-1596.57,433.826)">
                    <rect x="989.603" y="240" width="20" height="10"/>
                </g>
                <g transform="matrix(1.73357,0,0,1.43109,-1596.57,433.826)">
                    <rect x="989.603" y="130" width="20" height="10"/>
                </g>
                <g transform="matrix(1.73357,0,0,1.43109,-1596.57,433.826)">
                    <rect x="999.603" y="170" width="20" height="10"/>
                </g>
                <g transform="matrix(1.73357,0,0,1.43109,-1596.57,433.826)">
                    <rect x="1029.6" y="170" width="20" height="10"/>
                </g>
                <g transform="matrix(1.73357,0,0,1.43109,-1596.57,433.826)">
                    <rect x="1019.6" y="180" width="20" height="10"/>
                </g>
                <g transform="matrix(1.73357,0,0,1.43109,-1596.57,433.826)">
                    <rect x="1009.6" y="190" width="20" height="30"/>
                </g>
                <g transform="matrix(1.73357,0,0,1.43109,-1596.57,433.826)">
                    <rect x="1029.6" y="220" width="10" height="70"/>
                </g>
                <g transform="matrix(1.73357,0,0,1.43109,-1596.57,433.826)">
                    <rect x="1019.6" y="180" width="10" height="50"/>
                </g>
                <g transform="matrix(1.73357,0,0,1.43109,-1596.57,433.826)">
                    <rect x="1009.6" y="250" width="10" height="40.04"/>
                </g>
                <g transform="matrix(0.577856,0,0,1.43109,-429.755,433.826)">
                    <rect x="1009.6" y="260" width="90" height="10.02"/>
                </g>
                <g transform="matrix(0.577856,0,0,1.43109,-360.412,433.797)">
                    <rect x="1009.6" y="260" width="90" height="10.02"/>
                </g>
                <g transform="matrix(1.73357,0,0,1.43109,-1596.57,433.826)">
                    <rect x="1009.6" y="280.04" width="90" height="9.96"/>
                </g>
                <g transform="matrix(1.73357,0,0,0.390297,-1596.57,621.169)">
                    <rect x="1049.6" y="180" width="10" height="110"/>
                </g>
                <g transform="matrix(1.73357,0,0,1.43109,-3156.09,430.964)">
                    <rect x="1949.21" y="222" width="10" height="50"/>
                </g>
                <g transform="matrix(1.73357,0,0,1.43109,-1596.57,433.826)">
                    <rect x="1049.6" y="70" width="10" height="20"/>
                </g>
                <g transform="matrix(1.73357,0,0,1.43109,-1596.57,433.826)">
                    <rect x="1049.6" y="100.02" width="10" height="29.98"/>
                </g>
                <g transform="matrix(1.73357,0,0,1.43109,-1596.57,433.826)">
                    <rect x="1049.6" y="140.02" width="10" height="29.98"/>
                </g>
                <g transform="matrix(1.73357,0,0,1.43109,-1596.57,433.826)">
                    <rect x="1079.6" y="90" width="10.001" height="30"/>
                </g>
                <g transform="matrix(1.73357,0,0,1.43109,-1596.57,433.826)">
                    <rect x="1079.6" y="100" width="19.999" height="10"/>
                </g>
                <g transform="matrix(1.73357,0,0,1.43109,-1596.57,433.826)">
                    <rect x="1089.6" y="120" width="9.999" height="20"/>
                </g>
                <g transform="matrix(1.73357,0,0,1.43109,-1596.57,433.826)">
                    <rect x="1089.6" y="150" width="9.999" height="40"/>
                </g>
                <g transform="matrix(1.73357,0,0,1.43109,-1596.57,433.826)">
                    <rect x="1059.6" y="170" width="40" height="10"/>
                </g>
                <g transform="matrix(1.73357,0,0,1.43109,-1596.57,433.826)">
                    <rect x="1089.6" y="180" width="39.999" height="10"/>
                </g>
                <g transform="matrix(1.73357,0,0,1.43109,-1596.57,433.826)">
                    <rect x="1099.6" y="180" width="10" height="80"/>
                </g>
                <g transform="matrix(1.73357,0,0,1.43109,-1596.57,433.826)">
                    <rect x="1119.6" y="180" width="10" height="20"/>
                </g>
                <g transform="matrix(1.73357,0,0,1.43109,-1596.57,433.826)">
                    <rect x="1139.6" y="150" width="10" height="20"/>
                </g>
                <g transform="matrix(1.73357,0,0,1.43109,-1596.57,433.826)">
                    <rect x="1129.6" y="140" width="10" height="20"/>
                </g>
                <g transform="matrix(1.73357,0,0,1.43109,-1596.57,433.826)">
                    <rect x="999.603" y="110" width="10" height="10"/>
                </g>
                <g transform="matrix(1.73357,0,0,1.43109,-1596.57,433.826)">
                    <rect x="979.603" y="110" width="10" height="10"/>
                </g>
                <g transform="matrix(1.73357,0,0,1.43109,-1596.57,433.826)">
                    <rect x="1009.6" y="140" width="10" height="10"/>
                </g>
                <g transform="matrix(1.73357,0,0,1.43109,-1596.57,433.826)">
                    <rect x="959.603" y="200" width="10" height="10"/>
                </g>
                <g transform="matrix(1.73357,0,0,1.43109,-1596.57,433.826)">
                    <rect x="969.603" y="210" width="20" height="10"/>
                </g>
                <g transform="matrix(1.73357,0,0,1.43109,-1596.57,433.826)">
                    <rect x="1039.6" y="90" width="10" height="10"/>
                </g>
                <g transform="matrix(1.73357,0,0,1.43109,-1596.57,433.826)">
                    <rect x="1059.6" y="90" width="10" height="10"/>
                </g>
                <g transform="matrix(1.73357,0,0,1.43109,-1596.57,433.826)">
                    <rect x="1059.6" y="130" width="10" height="10"/>
                </g>
                <g transform="matrix(1.73357,0,0,1.43109,-1596.57,433.826)">
                    <rect x="1039.6" y="130" width="10" height="10"/>
                </g>
                <g transform="matrix(1.73357,0,0,1.43109,-1596.57,433.826)">
                    <rect x="1069.6" y="170" width="10" height="20"/>
                </g>
                <g transform="matrix(1.73357,0,0,1.32389,-1596.57,449.905)">
                    <rect x="1099.6" y="139.19" width="10" height="10.81"/>
                </g>
                <g transform="matrix(1.73357,0,0,1.43109,-1596.57,433.826)">
                    <rect x="1099.6" y="110" width="10" height="10"/>
                </g>
                <g transform="matrix(1.73357,0,0,1.32389,-1596.57,449.905)">
                    <rect x="1079.6" y="139.19" width="10" height="10.81"/>
                </g>
                <g transform="matrix(1.73357,0,0,1.02221,-1596.57,523.78)">
                    <rect x="1069.6" y="220" width="10" height="70"/>
                </g>
                <g transform="matrix(1.73357,0,0,0.715545,-1596.57,569.78)">
                    <rect x="1079.6" y="190" width="10" height="40"/>
                </g>
                <g transform="matrix(1.73357,0,0,1.43109,-3156.09,430.964)">
                    <rect x="1969.21" y="232" width="20" height="10"/>
                </g>
                <g transform="matrix(1.73357,0,0,1.43109,-3156.09,430.964)">
                    <rect x="1959.21" y="202" width="10" height="30"/>
                </g>
                <g transform="matrix(1.73357,0,0,1.43109,-1596.57,433.826)">
                    <rect x="1129.6" y="170" width="10" height="10"/>
                </g>
                <g transform="matrix(1.73357,0,0,1.43109,-1596.57,433.826)">
                    <rect x="1119.6" y="160" width="10" height="10"/>
                </g>
                <g transform="matrix(1.73357,0,0,1.43109,-1596.57,433.826)">
                    <rect x="1129.6" y="120" width="10" height="10"/>
                </g>
                <g transform="matrix(1.73357,0,0,1.43109,-1596.57,433.826)">
                    <rect x="1139.6" y="130" width="10" height="10"/>
                </g>
                <g transform="matrix(1.73357,0,0,1.43109,-1596.57,433.826)">
                    <rect x="1119.6" y="130" width="10" height="10"/>
                </g>
                <g transform="matrix(1.73357,0,0,1.43109,-1596.57,433.826)">
                    <rect x="1099.6" y="200" width="20" height="10"/>
                </g>
                <g transform="matrix(1.73357,0,0,2.38198,-1596.57,158.031)">
                    <rect x="1089.6" y="260" width="10" height="30.04"/>
                </g>
                <g transform="matrix(1.73357,0,0,1.43109,-3156.09,430.964)">
                    <rect x="1989.21" y="212" width="20" height="20"/>
                </g>
                <g transform="matrix(1.73357,0,0,1.43109,-3156.09,430.964)">
                    <rect x="1959.21" y="262" width="10" height="30.04"/>
                </g>
                <g transform="matrix(1.73357,0,0,1.43109,-3156.09,430.964)">
                    <rect x="1909.21" y="202" width="30" height="10"/>
                </g>
            </g>
        </g>
    </g>
</svg>
